<?xml version="1.0" encoding="UTF-8" standalone="no"?>
<!DOCTYPE svg PUBLIC "-//W3C//DTD SVG 1.1//EN" "http://www.w3.org/Graphics/SVG/1.1/DTD/svg11.dtd">
<svg width="100%" height="100%" viewBox="0 0 4463 596" version="1.1" xmlns="http://www.w3.org/2000/svg" xmlns:xlink="http://www.w3.org/1999/xlink" xml:space="preserve" xmlns:serif="http://www.serif.com/" style="fill-rule:evenodd;clip-rule:evenodd;stroke-linejoin:round;stroke-miterlimit:1.41421;">
    <g transform="matrix(4.16667,0,0,4.16667,0,0)">
        <path d="M157.137,3.748C149.284,3.748 142.956,9.281 141.753,17.173L129.531,88.088L101.245,52.631C98.483,49.158 94.569,47.396 89.618,47.396C84.551,47.396 80.571,49.158 77.809,52.631L49.532,88.088L37.3,17.239C36.082,9.414 29.696,3.748 22.1,3.748C13.501,3.748 6.501,10.676 6.501,19.2C6.501,19.981 6.659,21.061 7.082,23.205L25.068,128.397C25.856,134.462 33.08,139.979 40.269,139.979C45.029,139.746 49.308,137.337 52.989,132.784L89.618,87.341L126.073,132.784C129.771,137.353 134.149,139.779 139.133,139.979C145.834,139.979 153.123,134.429 154.144,128.547L172.196,22.689C172.205,22.523 172.247,22.257 172.312,21.759C172.445,20.795 172.56,19.832 172.56,19.2C172.56,10.676 165.645,3.748 157.137,3.748Z" style="fill:white;fill-rule:nonzero;"/>
        <path d="M253.989,3.727C216.468,3.727 186.052,34.199 186.052,71.789C186.052,109.378 216.468,139.851 253.989,139.851C291.51,139.851 321.928,109.378 321.928,71.789C321.928,34.199 291.51,3.727 253.989,3.727ZM253.989,33.189C275.235,33.189 292.519,50.505 292.519,71.789C292.519,93.073 275.235,110.389 253.989,110.389C232.745,110.389 215.46,93.073 215.46,71.789C215.46,50.505 232.745,33.189 253.989,33.189Z" style="fill:white;fill-rule:nonzero;"/>
        <path d="M943.251,32.981C951.273,32.981 957.776,26.466 957.776,18.428C957.776,10.391 951.273,3.875 943.251,3.875L901.727,3.875L887.021,3.875C878.901,3.875 872.319,10.471 872.319,18.606L872.319,125.12C872.319,133.256 878.901,139.851 887.021,139.851C895.143,139.851 901.727,133.256 901.727,125.12L901.727,86.416L929.752,86.416C937.774,86.416 944.277,79.901 944.277,71.863C944.277,63.826 937.774,57.31 929.752,57.31L901.727,57.31L901.727,32.981L943.251,32.981Z" style="fill:white;fill-rule:nonzero;"/>
        <path d="M1051.63,110.389L1010.47,110.389L1010.47,86.29L1038.49,86.29C1046.52,86.29 1053.02,79.774 1053.02,71.737L1053.02,71.736C1053.02,63.699 1046.52,57.184 1038.49,57.184L1010.47,57.184L1010.47,33.211L1051.63,33.211C1059.75,33.211 1066.33,26.616 1066.33,18.479C1066.33,10.344 1059.75,3.749 1051.63,3.749L1010.47,3.749L995.766,3.749C987.643,3.749 981.061,10.344 981.061,18.479L981.061,124.993C981.061,133.129 987.643,139.725 995.766,139.725L1010.47,139.725L1010.47,139.851L1051.63,139.851C1059.75,139.851 1066.33,133.256 1066.33,125.12C1066.33,116.984 1059.75,110.389 1051.63,110.389Z" style="fill:white;fill-rule:nonzero;"/>
        <path d="M829.709,139.851C821.588,139.851 815.004,133.255 815.004,125.119L815.004,18.457C815.004,10.322 821.588,3.727 829.709,3.727C837.83,3.727 844.412,10.322 844.412,18.457L844.412,125.119C844.412,133.255 837.83,139.851 829.709,139.851Z" style="fill:white;fill-rule:nonzero;"/>
        <path d="M588.75,114.576L547.311,73.061L588.75,31.545C594.492,25.792 594.492,16.464 588.75,10.711C583.007,4.958 573.696,4.958 567.955,10.711L506.905,71.875L506.905,18.457C506.905,10.322 500.321,3.727 492.199,3.727C484.077,3.727 477.495,10.322 477.495,18.457L477.495,125.119C477.495,133.255 484.077,139.851 492.199,139.851C500.321,139.851 506.905,133.255 506.905,125.119L506.905,113.542L526.515,93.895L567.955,135.41C573.698,141.163 583.009,141.163 588.75,135.41C594.492,129.657 594.492,120.329 588.75,114.576Z" style="fill:white;fill-rule:nonzero;"/>
        <path d="M777.789,110.403L744.051,110.403C738.546,110.459 734.17,105.727 734.17,100.212L734.17,18.472C734.17,10.335 727.586,3.74 719.466,3.74C711.345,3.74 704.761,10.335 704.761,18.472L704.761,100.351C704.761,121.684 721.726,139.124 742.848,139.842C743.252,139.855 743.652,139.841 744.051,139.825L744.051,139.851L777.789,139.851C785.906,139.851 792.486,133.259 792.486,125.127C792.486,116.995 785.906,110.403 777.789,110.403Z" style="fill:white;fill-rule:nonzero;"/>
        <path d="M375.367,85.72L375.367,33.337L397.208,33.337C411.624,33.337 423.352,45.087 423.352,59.529C423.352,73.971 411.624,85.72 397.208,85.72L375.367,85.72ZM452.76,59.529C452.76,28.792 427.888,3.875 397.208,3.875L375.367,3.875L375.367,3.801L360.661,3.801C352.541,3.801 345.957,10.396 345.957,18.532L345.957,125.194C345.957,133.33 352.541,139.925 360.661,139.925C368.783,139.925 375.367,133.33 375.367,125.194L375.367,115.182L397.208,115.182C401.634,115.182 405.935,114.648 410.063,113.668L424.781,133.637C427.957,137.724 432.12,139.725 437.152,139.725C445.761,139.725 452.76,132.757 452.76,124.234C452.76,120.694 451.623,117.336 449.591,114.843L437.294,98.037C446.866,88.038 452.76,74.477 452.76,59.529Z" style="fill:white;fill-rule:nonzero;"/>
        <path d="M682.508,74.008C682.508,95.333 665.255,112.62 643.966,112.62C622.683,112.62 605.425,95.333 605.425,74.008C605.425,52.684 622.683,35.396 643.966,35.396C665.255,35.396 682.508,52.684 682.508,74.008Z" style="fill:rgb(252,186,121);fill-rule:nonzero;"/>
    </g>
</svg>
